<svg width="30" height="30" viewBox="0 0 30 30" fill="none" xmlns="http://www.w3.org/2000/svg">
<g clip-path="url(#clip0_8_361)">
<path d="M15 0.260254C6.71512 0.260254 0 6.93655 0 15.1735C0 23.4105 6.71512 30.0868 15 30.0868C23.2849 30.0868 30 23.4105 30 15.1735C30 6.93655 23.2849 0.260254 15 0.260254ZM10.4302 22.9944H6.77616V11.3152H10.4302V22.9944ZM8.59884 9.71112C7.43023 9.71112 6.47965 8.76603 6.47965 7.60418C6.47965 6.44233 7.43023 5.49725 8.59884 5.49725C9.76744 5.49725 10.718 6.44233 10.718 7.60418C10.718 8.76603 9.76744 9.71112 8.59884 9.71112ZM24.0959 22.9944H20.4506V17.3152C20.4506 15.9626 20.4244 14.2198 18.5494 14.2198C16.6483 14.2198 16.3605 15.6938 16.3605 17.2198V23.003H12.7151V11.3152H16.2209V12.9105H16.2645C16.9797 11.6967 18.3052 10.9683 19.718 11.0204C23.4157 11.0204 24.0959 13.4394 24.0959 16.5868V22.9944Z" fill="white"/>
</g>
<defs>
<clipPath id="clip0_8_361">
<rect width="30" height="30" fill="white"/>
</clipPath>
</defs>
</svg>
